<mxfile host="Electron" agent="Mozilla/5.0 (X11; Linux x86_64) AppleWebKit/537.36 (KHTML, like Gecko) draw.io/26.0.16 Chrome/132.0.6834.196 Electron/34.2.0 Safari/537.36" version="26.0.16">
  <diagram name="Seite-1" id="jg6HiE4uAzFuPdEhv8pf">
    <mxGraphModel dx="1434" dy="956" grid="1" gridSize="10" guides="1" tooltips="1" connect="1" arrows="1" fold="1" page="1" pageScale="1" pageWidth="1654" pageHeight="1169" math="0" shadow="0">
      <root>
        <mxCell id="0" />
        <mxCell id="1" parent="0" />
        <mxCell id="vPf3YUtGzobnWf21OkkY-4" style="edgeStyle=orthogonalEdgeStyle;rounded=0;orthogonalLoop=1;jettySize=auto;html=1;startArrow=classic;startFill=1;dashed=1;" parent="1" source="vPf3YUtGzobnWf21OkkY-1" target="vPf3YUtGzobnWf21OkkY-3" edge="1">
          <mxGeometry relative="1" as="geometry" />
        </mxCell>
        <mxCell id="vPf3YUtGzobnWf21OkkY-6" value="sosa:madeObservation" style="edgeLabel;html=1;align=center;verticalAlign=middle;resizable=0;points=[];" parent="vPf3YUtGzobnWf21OkkY-4" vertex="1" connectable="0">
          <mxGeometry x="0.8646" relative="1" as="geometry">
            <mxPoint x="68" y="-12" as="offset" />
          </mxGeometry>
        </mxCell>
        <mxCell id="vPf3YUtGzobnWf21OkkY-7" value="sosa:madeBySensor" style="edgeLabel;html=1;align=center;verticalAlign=middle;resizable=0;points=[];" parent="vPf3YUtGzobnWf21OkkY-4" vertex="1" connectable="0">
          <mxGeometry x="-0.8253" y="-1" relative="1" as="geometry">
            <mxPoint x="-61" y="6" as="offset" />
          </mxGeometry>
        </mxCell>
        <mxCell id="qC0g9M6YSCneDA6KMWE8-16" style="edgeStyle=orthogonalEdgeStyle;rounded=0;orthogonalLoop=1;jettySize=auto;html=1;exitX=1;exitY=0.5;exitDx=0;exitDy=0;entryX=0;entryY=0.5;entryDx=0;entryDy=0;endArrow=block;endFill=0;" edge="1" parent="1" source="vPf3YUtGzobnWf21OkkY-1" target="qC0g9M6YSCneDA6KMWE8-15">
          <mxGeometry relative="1" as="geometry" />
        </mxCell>
        <mxCell id="qC0g9M6YSCneDA6KMWE8-17" value="rdfs:subClassOf" style="edgeLabel;html=1;align=center;verticalAlign=middle;resizable=0;points=[];" vertex="1" connectable="0" parent="qC0g9M6YSCneDA6KMWE8-16">
          <mxGeometry x="0.7516" y="1" relative="1" as="geometry">
            <mxPoint x="-31" y="14" as="offset" />
          </mxGeometry>
        </mxCell>
        <mxCell id="vPf3YUtGzobnWf21OkkY-1" value="bfh:Sensor" style="rounded=0;whiteSpace=wrap;html=1;fillColor=#fff2cc;strokeColor=#d6b656;" parent="1" vertex="1">
          <mxGeometry x="827" y="600" width="90" height="35" as="geometry" />
        </mxCell>
        <mxCell id="vPf3YUtGzobnWf21OkkY-11" style="edgeStyle=orthogonalEdgeStyle;rounded=0;orthogonalLoop=1;jettySize=auto;html=1;exitX=0;exitY=0.5;exitDx=0;exitDy=0;entryX=1;entryY=0.5;entryDx=0;entryDy=0;dashed=1;" parent="1" source="vPf3YUtGzobnWf21OkkY-3" target="vPf3YUtGzobnWf21OkkY-9" edge="1">
          <mxGeometry relative="1" as="geometry" />
        </mxCell>
        <mxCell id="vPf3YUtGzobnWf21OkkY-12" value="sosa:resultTime" style="edgeLabel;html=1;align=center;verticalAlign=middle;resizable=0;points=[];" parent="vPf3YUtGzobnWf21OkkY-11" vertex="1" connectable="0">
          <mxGeometry x="0.8448" y="1" relative="1" as="geometry">
            <mxPoint x="38" y="12" as="offset" />
          </mxGeometry>
        </mxCell>
        <mxCell id="vPf3YUtGzobnWf21OkkY-14" style="edgeStyle=orthogonalEdgeStyle;rounded=0;orthogonalLoop=1;jettySize=auto;html=1;exitX=0.5;exitY=1;exitDx=0;exitDy=0;entryX=0.5;entryY=0;entryDx=0;entryDy=0;dashed=1;" parent="1" source="vPf3YUtGzobnWf21OkkY-3" target="vPf3YUtGzobnWf21OkkY-13" edge="1">
          <mxGeometry relative="1" as="geometry" />
        </mxCell>
        <mxCell id="vPf3YUtGzobnWf21OkkY-15" value="sosa:hasSimpleResult" style="edgeLabel;html=1;align=center;verticalAlign=middle;resizable=0;points=[];" parent="vPf3YUtGzobnWf21OkkY-14" vertex="1" connectable="0">
          <mxGeometry x="0.4533" y="1" relative="1" as="geometry">
            <mxPoint x="67" as="offset" />
          </mxGeometry>
        </mxCell>
        <mxCell id="vPf3YUtGzobnWf21OkkY-3" value="sosa:Observation" style="rounded=0;whiteSpace=wrap;html=1;fillColor=#d5e8d4;strokeColor=#82b366;" parent="1" vertex="1">
          <mxGeometry x="820.5" y="740" width="103" height="35" as="geometry" />
        </mxCell>
        <mxCell id="vPf3YUtGzobnWf21OkkY-9" value="xsd:dateTime" style="rounded=0;whiteSpace=wrap;html=1;" parent="1" vertex="1">
          <mxGeometry x="600" y="740" width="103" height="35" as="geometry" />
        </mxCell>
        <mxCell id="vPf3YUtGzobnWf21OkkY-13" value="rdfs:Literal" style="rounded=0;whiteSpace=wrap;html=1;fillColor=#f5f5f5;strokeColor=#666666;fontColor=#333333;" parent="1" vertex="1">
          <mxGeometry x="820.5" y="860" width="103" height="35" as="geometry" />
        </mxCell>
        <mxCell id="vPf3YUtGzobnWf21OkkY-18" style="edgeStyle=orthogonalEdgeStyle;rounded=0;orthogonalLoop=1;jettySize=auto;html=1;exitX=0.5;exitY=1;exitDx=0;exitDy=0;entryX=0.5;entryY=0;entryDx=0;entryDy=0;dashed=1;startArrow=classic;startFill=1;" parent="1" source="vPf3YUtGzobnWf21OkkY-17" target="vPf3YUtGzobnWf21OkkY-1" edge="1">
          <mxGeometry relative="1" as="geometry" />
        </mxCell>
        <mxCell id="vPf3YUtGzobnWf21OkkY-19" value="sosa:isHostedBy" style="edgeLabel;html=1;align=center;verticalAlign=middle;resizable=0;points=[];" parent="vPf3YUtGzobnWf21OkkY-18" vertex="1" connectable="0">
          <mxGeometry x="-0.7397" y="1" relative="1" as="geometry">
            <mxPoint x="-53" as="offset" />
          </mxGeometry>
        </mxCell>
        <mxCell id="vPf3YUtGzobnWf21OkkY-20" value="sosa:hosts" style="edgeLabel;html=1;align=center;verticalAlign=middle;resizable=0;points=[];" parent="vPf3YUtGzobnWf21OkkY-18" vertex="1" connectable="0">
          <mxGeometry x="0.6413" y="1" relative="1" as="geometry">
            <mxPoint x="37" y="-1" as="offset" />
          </mxGeometry>
        </mxCell>
        <mxCell id="qC0g9M6YSCneDA6KMWE8-3" style="edgeStyle=orthogonalEdgeStyle;rounded=0;orthogonalLoop=1;jettySize=auto;html=1;exitX=1;exitY=0.5;exitDx=0;exitDy=0;entryX=0;entryY=0.5;entryDx=0;entryDy=0;endArrow=block;endFill=0;" edge="1" parent="1" source="vPf3YUtGzobnWf21OkkY-17" target="qC0g9M6YSCneDA6KMWE8-2">
          <mxGeometry relative="1" as="geometry" />
        </mxCell>
        <mxCell id="qC0g9M6YSCneDA6KMWE8-4" value="rdfs:subClassOf" style="edgeLabel;html=1;align=center;verticalAlign=middle;resizable=0;points=[];" vertex="1" connectable="0" parent="qC0g9M6YSCneDA6KMWE8-3">
          <mxGeometry x="0.6688" relative="1" as="geometry">
            <mxPoint x="-26" y="13" as="offset" />
          </mxGeometry>
        </mxCell>
        <mxCell id="vPf3YUtGzobnWf21OkkY-17" value="bfh:SensorNode" style="rounded=0;whiteSpace=wrap;html=1;fillColor=#fff2cc;strokeColor=#d6b656;" parent="1" vertex="1">
          <mxGeometry x="818.75" y="460" width="106.5" height="35" as="geometry" />
        </mxCell>
        <mxCell id="qC0g9M6YSCneDA6KMWE8-2" value="sosa:Platform" style="rounded=0;whiteSpace=wrap;html=1;fillColor=#d5e8d4;strokeColor=#82b366;" vertex="1" parent="1">
          <mxGeometry x="1070" y="460" width="90" height="35" as="geometry" />
        </mxCell>
        <mxCell id="qC0g9M6YSCneDA6KMWE8-6" style="edgeStyle=orthogonalEdgeStyle;rounded=0;orthogonalLoop=1;jettySize=auto;html=1;exitX=0.5;exitY=1;exitDx=0;exitDy=0;entryX=0.5;entryY=0;entryDx=0;entryDy=0;dashed=1;startArrow=classic;startFill=1;" edge="1" parent="1" source="qC0g9M6YSCneDA6KMWE8-5" target="vPf3YUtGzobnWf21OkkY-17">
          <mxGeometry relative="1" as="geometry" />
        </mxCell>
        <mxCell id="qC0g9M6YSCneDA6KMWE8-14" value="bfh:belongsToProject" style="edgeLabel;html=1;align=center;verticalAlign=middle;resizable=0;points=[];" vertex="1" connectable="0" parent="qC0g9M6YSCneDA6KMWE8-6">
          <mxGeometry x="-0.5178" y="2" relative="1" as="geometry">
            <mxPoint x="-64" y="-17" as="offset" />
          </mxGeometry>
        </mxCell>
        <mxCell id="qC0g9M6YSCneDA6KMWE8-5" value="schema:Project" style="rounded=0;whiteSpace=wrap;html=1;fillColor=#ffe6cc;strokeColor=#d79b00;" vertex="1" parent="1">
          <mxGeometry x="818.75" y="290" width="106.5" height="35" as="geometry" />
        </mxCell>
        <mxCell id="qC0g9M6YSCneDA6KMWE8-12" value="&lt;div&gt;&lt;span style=&quot;font-size: 10px; background-color: transparent; color: light-dark(rgb(0, 0, 0), rgb(255, 255, 255));&quot;&gt;name&lt;/span&gt;&lt;/div&gt;&lt;div&gt;&lt;font style=&quot;font-size: 10px;&quot;&gt;description&lt;/font&gt;&lt;/div&gt;&lt;div&gt;&lt;font style=&quot;font-size: 10px;&quot;&gt;alternateName&lt;/font&gt;&lt;/div&gt;&lt;div&gt;&lt;font style=&quot;font-size: 10px;&quot;&gt;logo&lt;/font&gt;&lt;/div&gt;&lt;div&gt;&lt;font style=&quot;font-size: 10px;&quot;&gt;url&lt;/font&gt;&lt;/div&gt;" style="shape=note;whiteSpace=wrap;html=1;backgroundOutline=1;darkOpacity=0.05;align=left;" vertex="1" parent="1">
          <mxGeometry x="970" y="246.25" width="80" height="102.5" as="geometry" />
        </mxCell>
        <mxCell id="qC0g9M6YSCneDA6KMWE8-13" value="&lt;font style=&quot;font-size: 10px;&quot;&gt;identifier&lt;/font&gt;&lt;div&gt;&lt;font size=&quot;1&quot;&gt;firmwareVersion&lt;/font&gt;&lt;/div&gt;&lt;div&gt;&lt;font size=&quot;1&quot;&gt;geoLocation&lt;/font&gt;&lt;/div&gt;&lt;div&gt;&lt;font size=&quot;1&quot;&gt;DevEUI, AppKey&lt;/font&gt;&lt;/div&gt;" style="shape=note;whiteSpace=wrap;html=1;backgroundOutline=1;darkOpacity=0.05;align=left;" vertex="1" parent="1">
          <mxGeometry x="650" y="426.25" width="80" height="102.5" as="geometry" />
        </mxCell>
        <mxCell id="qC0g9M6YSCneDA6KMWE8-15" value="sosa:Sensor" style="rounded=0;whiteSpace=wrap;html=1;fillColor=#d5e8d4;strokeColor=#82b366;" vertex="1" parent="1">
          <mxGeometry x="1070" y="600" width="90" height="35" as="geometry" />
        </mxCell>
        <mxCell id="qC0g9M6YSCneDA6KMWE8-18" value="&lt;font style=&quot;font-size: 10px;&quot;&gt;identifier&lt;/font&gt;&lt;div&gt;&lt;font size=&quot;1&quot;&gt;firmwareVersion&lt;/font&gt;&lt;/div&gt;&lt;div&gt;&lt;font size=&quot;1&quot;&gt;geoLocation&lt;/font&gt;&lt;/div&gt;&lt;div&gt;&lt;font size=&quot;1&quot;&gt;DevEUI, AppKey&lt;/font&gt;&lt;/div&gt;" style="shape=note;whiteSpace=wrap;html=1;backgroundOutline=1;darkOpacity=0.05;align=left;" vertex="1" parent="1">
          <mxGeometry x="650" y="566.25" width="80" height="102.5" as="geometry" />
        </mxCell>
        <mxCell id="qC0g9M6YSCneDA6KMWE8-19" value="&lt;div&gt;rdfs:&amp;nbsp;http://www.w3.org/2000/01/rdf-schema#&lt;/div&gt;&lt;div&gt;xsd:&amp;nbsp;http://www.w3.org/2001/XMLSchema#&lt;/div&gt;&lt;div&gt;schema:&amp;nbsp;http://schema.org/&lt;/div&gt;sosa: http://www.w3.org/ns/sosa/&lt;div&gt;&lt;i&gt;bfh: http://ld.bfh.ch/&lt;/i&gt;&lt;/div&gt;" style="rounded=0;whiteSpace=wrap;html=1;align=left;spacing=10;" vertex="1" parent="1">
          <mxGeometry x="1300" y="820" width="260" height="100" as="geometry" />
        </mxCell>
      </root>
    </mxGraphModel>
  </diagram>
</mxfile>
